<svg xmlns="http://www.w3.org/2000/svg" viewBox="0 0 469.68 469.21"><title>Asset 1</title><g id="Layer_2" data-name="Layer 2"><g id="TEXT"><path d="M320.08,364.6c6.86,2.24,13,3.18,18,6.08,10.62,6.18,15.22,16.16,13.74,28.36s-8.6,20.4-20.15,24.36c-19.51,6.69-39.13,13.07-58.7,19.59q-32.9,11-65.8,21.95-30.7,10.32-59.55-4.27c-9.65-4.88-19.44-9.51-29-14.55a23.51,23.51,0,0,0-15.44-2.48Q90.6,445.74,78,447.81c-2.52.41-4.28,1.21-5.6,4-3.67,7.69-10.09,11.82-18.72,11.92-10.66.13-21.33.2-32,0-12.32-.19-21.39-8.66-21.5-21q-.44-48.24,0-96.48c.12-12.31,9.25-20.73,21.56-20.94,8.83-.15,17.66,0,26.49,0,16,0,20.73,3.2,26.83,18.3,6.24-2.06,12.6-3.9,18.71-6.38,1.25-.51,2.17-3.39,2.18-5.19.15-24.33.11-48.65.11-73,0-16,8.4-24.5,24.22-24.5H295.77c16,0,24.29,8.21,24.3,24.27q0,50.25,0,100.48ZM170.84,256.07H118v72.87c19.95-3.62,26.36-3.48,39.72.88,20.39,6.66,40.77,13.4,61.19,20,9.58,3.09,16.83,8.67,20.33,18.35,1,2.91,1.54,6,2.41,9.57l56.77-8.41V256.06H245.59v5.63c0,15.33.12,30.67,0,46-.12,10.48-8.5,15.08-17.56,9.8-5.61-3.27-11.21-6.57-16.67-10.08-2.28-1.47-4-1.43-6.26,0-5.32,3.43-10.86,6.49-16.23,9.84-4.11,2.56-8.33,3.55-12.7,1-4.19-2.43-5.37-6.39-5.33-11.07.12-13.17,0-26.34,0-39.5Zm-96,170.7c8-1.33,15.4-2.34,22.71-3.85a44.12,44.12,0,0,1,30.94,4.3c9.38,5,19.06,9.51,28.56,14.33a53.9,53.9,0,0,0,43.09,3.2q61.53-20.55,123.09-41.05c5.81-1.94,8.47-5.66,7.38-10.08-1.14-4.64-5.06-6.8-11.07-5.91-25,3.69-50.08,7.35-75.09,11.18-5.7.88-11.72,1.48-16.85,3.82-6.63,3-13.17,4.92-20.26,3.67-24.09-4.22-48.16-8.64-72.22-13.1a10.67,10.67,0,0,1-5.63-18.13c3.16-3.25,7.12-3.27,11.19-2.55,8,1.43,16,2.92,24.07,4.39,15.06,2.76,30.12,5.55,45.18,8.27,4.93.88,8.74-1.38,9.73-5.59.91-3.86-1.36-7.32-6-9.05-.46-.18-.95-.3-1.42-.45l-62.12-20.41a40.31,40.31,0,0,0-26.45.14q-22.42,7.69-45,14.91c-3.14,1-4,2.54-3.94,5.69.16,16.33.07,32.66.07,49ZM53.19,442.38V346.82H22v95.56ZM192.37,291.26c10.71-10.93,20.87-10.51,31.35-.54V256.11H192.37Z"/><path d="M395.2,26.89c4.29-11.75,12.41-16.81,24.37-16.42,9.16.29,18.33,0,27.49.07,12.87.07,22.27,8.43,22.39,21.2q.48,48.23,0,96.45c-.13,12.13-8.92,20.53-21.1,21-10.65.37-21.33.2-32,0-6.06-.08-11.54-2.13-15.56-6.8-1.88-2.2-3.42-1.81-5.58-.84-9.85,4.44-19.81,8.66-29.59,13.25a5.85,5.85,0,0,0-2.65,4.34c-.23,10.32-.09,20.65-.13,31-.05,14-8.66,23.08-22.6,23.1q-110.7.14-221.4,0c-13.64,0-22.65-9-22.7-22.56q-.16-52.23,0-104.45c0-13.36,9-22.2,22.32-22.42,9.5-.16,19,.16,28.49-.18a10.63,10.63,0,0,0,6.53-3.16c8.23-8.66,16-17.77,24.3-26.36a32.24,32.24,0,0,1,9.56-6.26C203.89,20.06,220.4,12.13,237.22,5c17.5-7.45,35.39-5.37,53.42-1.16,33.37,7.79,66.86,15,100.3,22.48C392.23,26.57,393.56,26.66,395.2,26.89ZM117.85,191.42h223.3V159.77h-5.43c-34.15,0-68.29.12-102.44-.08-14.78-.08-26.55-11.15-27.52-25.09-1.07-15.47,8.49-27.77,23.64-30.22,6.9-1.11,13.84-1.94,20.77-2.88,12.86-1.76,25.74-3.44,38.58-5.29,6.76-1,10.06-4.37,10.86-10.58H117.85ZM178.54,63.79H315.39c12,0,16.45,7.36,11,18.18-2.61,5.2-5.33,10.35-7.85,15.6-5.86,12.14-15.5,18.47-28.87,20.07-18.67,2.24-37.27,5.07-55.9,7.58-4.21.57-6.89,2.57-6.86,7,0,3.87,3.12,6.16,8.05,6.28h.5c34.32,0,68.64.32,102.94-.25,7.91-.14,16-2.62,23.6-5.34,9.83-3.53,19.14-8.49,28.78-12.59,3-1.28,4.16-2.82,4.13-6.25-.21-18.82-.1-37.64-.1-56.46V49.11c-1.18-.31-1.95-.54-2.73-.72q-58.46-13-116.9-25.91a52.36,52.36,0,0,0-34.09,3.94c-13.87,6.46-27.84,12.69-41.7,19.16C191.13,49.45,184.43,55.28,178.54,63.79Zm269.25,63.74V32.22H416.41v95.31Z"/></g></g></svg>