<svg xmlns="http://www.w3.org/2000/svg" viewBox="0 0 664.72 466.47"><title>Asset 3</title><g id="Layer_2" data-name="Layer 2"><g id="TEXT"><path d="M27.87,385.19V380q0-177.39,0-354.78Q27.87,0,53,0,308.2,0,563.4.12c4.93,0,10.36.83,14.68,3,8,4,11.24,11.51,11.22,20.49-.07,27.67,0,55.34,0,83q0,116.61,0,233.23V346a38.58,38.58,0,0,1-3.47-2.33c-9.36-8.06-18.58-16.27-28.09-24.15a11.08,11.08,0,0,1-4.52-9.56q.21-133.17.11-266.34V35H64.05v316h6.67q217.17,0,434.33-.09c4,0,6.59,1.1,9.13,4.22,8.2,10,16.75,19.78,25.6,30.14ZM50,134.09c0-4.77-.11-9.55,0-14.32.1-3.47-1.33-5.4-4.81-5.41s-5,1.94-5,5.36c.05,9.39.07,18.77,0,28.16,0,3.58,1.92,5.25,5.15,5.18,3.05-.06,4.72-1.8,4.62-5.13C49.92,143.32,50,138.7,50,134.09Zm526.62-.35c0-4.75-.07-9.51,0-14.26.07-3.58-1.77-5.16-5.11-5.08-3.1.08-4.74,1.69-4.72,5,.07,9.51.09,19,0,28.52,0,3.3,1.56,5,4.61,5.12,3.25.13,5.26-1.45,5.22-5C576.61,143.25,576.65,138.49,576.65,133.74Z"/><path d="M511.92,280.23c2.31,5.23,4.22,10,6.54,14.6.76,1.5,2.55,2.49,3.9,3.66,36.11,31.47,72.5,62.63,108.19,94.57,10.72,9.58,20.08,20.88,29,32.24,8.18,10.44,6.33,23.94-2.93,33.21-9,9-22.67,11-32.8,2.83-12.91-10.38-25.7-21.27-36.73-33.56-30.55-34.06-60.14-69-90.23-103.47-1.9-2.16-4.85-3.43-7.4-5-1.81-1.11-3.85-1.86-5.61-3a56.76,56.76,0,0,1-4.7-4c-32.8,21.79-68.55,28.68-106.89,19.54-31.82-7.59-57.34-25.18-76.4-51.75a132.35,132.35,0,0,1,15.69-172.32c47-45.41,120.53-49.59,172-10.61C539.51,139.51,554.63,221.63,511.92,280.23Zm-2.77-76.58c1-55.54-46.19-104.86-101.34-105.82-60.81-1.06-108.85,45-109.59,105-.69,56.73,46.1,104.49,103.54,105.67C460.1,309.68,508,262.89,509.15,203.65Z"/><path d="M0,402.13H256.61c.13,1.37.21,2.49.34,3.62.85,7.12,5.29,11.33,12.51,11.35q39,.12,78.06,0c8.07,0,11.34-3.85,13.2-15.24h5.19q91.63,0,183.28-.08a10.92,10.92,0,0,1,8.86,4C571.1,420,584.4,433.88,597.6,447.9c.86.9,1.67,1.85,3.48,3.88-6.31.41-11.46,1-16.6,1q-217.87.09-435.74.05-59,0-118.08,0c-7.52,0-14.78-.9-21.36-4.86-5.91-3.57-9.39-8.5-9.3-15.71C.13,422.45,0,412.58,0,402.13Z"/><path d="M399.22,116.1c1.48,0,3.13-.12,4.76,0,4.38.4,7.27,3.3,7.32,7.21.05,4.21-2.86,7.14-7.63,7.27-10.85.3-21.28,2.38-30.91,7.45-24.2,12.74-37.49,32.73-39.45,60.11-.08,1.15,0,2.31-.13,3.46-.51,4.66-3.49,7.35-7.82,7.1-4-.23-6.72-3.17-6.73-7.63a79.92,79.92,0,0,1,9.85-39.31C343.8,134,367.56,119.1,399.22,116.1Z"/></g></g></svg>