<svg xmlns="http://www.w3.org/2000/svg" width="212.361" height="106.306" viewBox="0 0 212.361 106.306">
  <g id="Group_35" data-name="Group 35" transform="translate(1102.804 -990.161)">
    <path id="Path_15" data-name="Path 15" d="M-1065.469,996.786c.737-4.8,2.866-6.624,7.481-6.624h109.563c4.691,0,6.587,1.982,6.226,6.607-.346,4.43-.764,8.854-1.143,13.281-.065.751-.1,1.5-.161,2.486h1.711c6.668,0,13.335-.017,20,.007a13.552,13.552,0,0,1,10.365,4.526q8.751,9.554,17.486,19.122a13.146,13.146,0,0,1,3.449,10.185c-.716,9.112-1.554,18.214-2.342,27.32a6.268,6.268,0,0,1-6.089,5.995c-.895.057-1.8.009-2.693.009a51.973,51.973,0,0,0-.416-5.22c-2.183-12.083-14.236-18.832-26.163-14.468-8.417,3.079-13.592,9.158-15.328,18.036-.1.492-.185.986-.294,1.569h-67a47.939,47.939,0,0,0-.353-4.953c-2.107-12.185-14.184-19.047-26.155-14.667-8.719,3.19-13.916,9.542-15.491,18.758-.042.246-.077.492-.149.959h-2.373c-3.637,0-7.274.02-10.911-.006-4.04-.029-6.073-2.213-5.746-6.219.616-7.549,1.273-15.1,1.918-22.643.025-.293.108-.581.193-1.023h1.814c5.607,0,11.214.014,16.821-.008a3.651,3.651,0,0,0,3.914-3.228,2.893,2.893,0,0,0-2.452-3.284,10.054,10.054,0,0,0-1.81-.091q-23.564-.007-47.128,0c-2.691,0-4.03-.973-4.075-2.959-.049-2.16,1.7-3.7,4.256-3.7q33.718-.007,67.435,0a12.943,12.943,0,0,0,1.815-.057,3.674,3.674,0,0,0,3.069-3.6c-.072-1.688-1.3-2.792-3.256-2.905-.5-.029-1.01-.011-1.515-.011q-27.807,0-55.615,0c-2.09,0-3.356-1.038-3.493-2.783a3.626,3.626,0,0,1,3.166-3.8,13.729,13.729,0,0,1,1.815-.062q20.988,0,41.976-.005a11.229,11.229,0,0,0,1.662-.071,3.63,3.63,0,0,0,3.119-3.694c-.125-1.74-1.41-2.784-3.484-2.785q-25.08-.007-50.16,0c-.354,0-.707,0-1.061,0-2.245-.026-3.6-1.112-3.68-2.949a3.708,3.708,0,0,1,3.6-3.734c.453-.025.909-.008,1.364-.008q29.246,0,58.493.013c1.831,0,3.292-.517,4.077-2.266a2.994,2.994,0,0,0-2.524-4.318c-.451-.044-.909-.015-1.363-.015h-45.462c-.4,0-.808,0-1.212,0-2.375-.019-3.673-1.1-3.674-3.063a3.628,3.628,0,0,1,3.711-3.608c3.485-.052,6.97-.017,10.456-.018Zm164.855,40.833c-5.409-5.9-10.553-11.6-15.8-17.191a7.4,7.4,0,0,0-5.486-2.216c-5.1-.03-10.2.01-15.3-.029-.969-.008-1.3.294-1.366,1.275-.235,3.424-.575,6.842-.867,10.262-.222,2.6-.43,5.2-.652,7.9Z" transform="translate(0 0)" fill="#7e2061"/>
    <path id="Path_16" data-name="Path 16" d="M-906.418,1230.033c9.9,0,16.844,8.375,15.178,18.3a18.8,18.8,0,0,1-17.411,15.281c-10.3.376-17.732-8.338-15.819-18.538A18.71,18.71,0,0,1-906.418,1230.033Zm6.81,16.062a7.42,7.42,0,0,0-7.615-7.534,9.151,9.151,0,0,0-8.922,8.91,7.458,7.458,0,0,0,7.543,7.625A9.161,9.161,0,0,0-899.607,1246.094Z" transform="translate(-124.068 -167.162)" fill="#7e2061"/>
    <path id="Path_17" data-name="Path 17" d="M-549.233,1263.6a15.26,15.26,0,0,1-15.133-18.361,18.7,18.7,0,0,1,19.11-15.223c9.392.441,15.88,8.975,14.109,18.555A18.769,18.769,0,0,1-549.233,1263.6Zm-6.776-16.144a7.457,7.457,0,0,0,7.557,7.61,9.2,9.2,0,0,0,9-9.011,7.442,7.442,0,0,0-7.488-7.521A9.153,9.153,0,0,0-556.009,1247.46Z" transform="translate(-375.037 -167.139)" fill="#7e2061"/>
  </g>
</svg>
