<svg xmlns="http://www.w3.org/2000/svg" viewBox="0 0 346.7 328.7">
    <defs>
        <style>
            /* .cls-1,
            .cls-2 {
                fill: #7e2061;
            }

            .cls-1 {
                fill-rule: evenodd;
            }

            .cls-3 {
                fill: #5d595a;
            } */
        </style>
    </defs>
    <g id="Layer_2" data-name="Layer 2">
        <g id="Calque_1" data-name="Calque 1">
            <path class="cls-1"
                d="M76.88,52.23c-1.92-1.08-1.9-3.52-1.6-4.89a12.94,12.94,0,0,1,2.43-4.26c.46-.52,1.29-1.35,1.8-1.93.74-.86,1-1.07,1.35-1.07s.49.12,1,1.12a17,17,0,0,0,1.31,2.22c1.45,2,1.64,2.38,1.65,3.21a3.69,3.69,0,0,1-.52,1.95,12.9,12.9,0,0,1-2.36,3.06C80.34,53,79.19,53.54,76.88,52.23Zm-2.95,9c-4.39-2.48-4.34-8.07-3.67-11.19.56-2.62,3.65-7.63,5.56-9.78,1.05-1.18,3-3.08,4.13-4.42,1.69-2,2.31-2.43,3.1-2.43s1.1.27,2.18,2.57a38.79,38.79,0,0,0,3,5.07c3.32,4.6,3.76,5.46,3.77,7.35,0,1.63-.15,2.24-1.18,4.46a29.42,29.42,0,0,1-5.41,7C81.86,63,79.21,64.18,73.93,61.2Z" />
            <path class="cls-1"
                d="M201.45,115.92l-31.68-99.2L229.2,0l60.69,190.05-59.43,16.73-23.52-73.66c2.93-1.73,5.87-4.71,10.66-10.36,5.74-6.75,9-10.05,11-11s4.82-.65,9.62,1.06c5.76,2.06,7.93,1.8,11.49-1.36a29.57,29.57,0,0,0,5.41-7c1-2.22,1.19-2.84,1.18-4.46,0-1.9-.45-2.76-3.77-7.36a38.79,38.79,0,0,1-3-5.07c-1.08-2.3-1.3-2.56-2.19-2.56s-1.4.48-3.09,2.43c-1.17,1.33-2.95,3.36-4.13,4.41-1.92,1.71-2.15,1.86-3.74,3.26a64.36,64.36,0,0,0-9.88,10.19c-4.29,5.36-7.39,8.39-9.68,9.46-2.89,1.35-4.35,1.51-11.46,1.27Z" />
            <path class="cls-1"
                d="M141.49,139.65c-.87-.24-1.13-.47-1-.9.85-2.65,1.87-16.41,2.71-36.45,1-23.6,1.33-27.73,2.87-33.37a113.38,113.38,0,0,1,7.07-17.85l1.44-2.93,1.1.36a3.59,3.59,0,0,1,1.29.65,6.22,6.22,0,0,1-.32,2.23c-1,3.94-1.76,10.26-2.37,20.56-.2,3.41-.52,8.69-.71,11.73s-.52,8.48-.72,12.08c-1,17.69-1.48,20.76-4.64,31.69-1.28,4.43-4.72,12.61-5.28,12.55C142.79,140,142.14,139.82,141.49,139.65Zm28.28-10.85c-4.89,5.16-10.07,12-15.94,21-9.89,15.18-20,28.92-26.7,36.17-3.23,3.51-7.7,8-11.34,11.33-2.28,2.11-4.14,3.91-4.14,4a23.87,23.87,0,0,0,3.06,2.73c1.24,0,12.45-10.14,18.59-16.82,7.27-7.91,10.68-12.18,19.76-24.79,7.44-10.33,12.43-16.55,16.71-20.79v65.61h-62V167.14a66.43,66.43,0,0,0,4.73-6.32,44.82,44.82,0,0,0,5-10.75,2.46,2.46,0,0,1,.35-.91c.35-.6,2.07-5.47,2.86-8.13.25-.83.58-1.88.74-2.35.47-1.36,2.16-8.15,2.8-11.23A132.13,132.13,0,0,0,126.88,102c.21-7,.57-18,1.24-38.23S129.5,31,130.27,25c.92-7.13.94-6.64-.18-7a2.93,2.93,0,0,0-1.4-.22,19.28,19.28,0,0,0-2.07,4.12c-6,14.24-6.53,18.09-8.3,60.66-2.34,56-2.33,57.51-6.73,65.9a10.15,10.15,0,0,1-3.86,4.61V8.88h62Z" />
            <path class="cls-2"
                d="M180.17,176.15c-1.28-1.15-3.53-3.05-5-4.23a19.27,19.27,0,0,1-3-2.76c-.38-.72.25-1.57,4.66-6.36,3.62-3.94,6-6,6.83-6s5.64,3,7.75,4.91l1.74,1.57.69-.81a83.58,83.58,0,0,1,7.44-7.36,2.23,2.23,0,0,1,1.76-.48,45.77,45.77,0,0,1,7.44,5.21c3.8,3.58,3.34,7-1.61,11.6-2.35,2.21-6,4.82-6.63,4.82a43.57,43.57,0,0,1-4.12-3.35,35.1,35.1,0,0,0-4.21-3.36c-.2,0-.63.41-.95.92-1.4,2.21-8.38,7.81-9.72,7.79A9.27,9.27,0,0,1,180.17,176.15Z" />
            <path class="cls-2"
                d="M69,179.93a31,31,0,0,1-8.84-3.1,29.06,29.06,0,0,1-11-10.31c-3.84-7-5-14.05-4-24.15a97.41,97.41,0,0,1,1.68-11.57c.3-1.38.62-2.89.72-3.35.33-1.62,2.29-7.91,3.19-10.23L52.35,113c.39-1,1-2.45,1.35-3.19s1.08-2.32,1.63-3.52c1.42-3.1,1.6-3.24,3.4-2.67a3.65,3.65,0,0,1,1.64.83,4.86,4.86,0,0,1-.59,2,125.24,125.24,0,0,0-4.41,12.56c-1.72,6.8-2.26,12.23-1.69,17A25.84,25.84,0,0,0,55.91,145a20.72,20.72,0,0,0,10.9,10.79c3.79,1.74,4.35,1.91,9.34,2.83,4.36.8,14.55.79,19.72-.95,6.46-2.19,9.8-3.39,11.86-4.71v14.08c-2.89,3.42-6.88,7.33-11.5,9.6-3.86,1.89-6.49,2.54-11.37,3.44A85.11,85.11,0,0,1,69,179.93Z" />
            <path class="cls-2"
                d="M206.94,133.12a17.69,17.69,0,0,1-5.45,2,27.62,27.62,0,0,1-9.46.19c-1.43-.18-4.57-.34-7-.37-6.32-.08-8.87.84-13.35,4.83-.64.56-1.28,1.16-1.94,1.81V128.72a47.38,47.38,0,0,1,13.39-10.33c5-2.43,6.86-2.8,18.29-2.47Z" />
            <path class="cls-3"
                d="M33,314.65a8,8,0,0,1-1.33,11.27c-2.05,1.54-4.86,2.32-8.45,2.32H8.16V295.79H23.22a11.44,11.44,0,0,1,7.46,2.29,7.47,7.47,0,0,1,2.81,6.1,7.82,7.82,0,0,1-1.43,4.63,7.33,7.33,0,0,1-3.85,2.83A9.67,9.67,0,0,1,33,314.65ZM29.17,299.5a9.21,9.21,0,0,0-6-1.76H10.33v13H23.22a9.4,9.4,0,0,0,6-1.71,6.27,6.27,0,0,0,0-9.5Zm.94,25a6.28,6.28,0,0,0-.05-10,11.16,11.16,0,0,0-6.74-1.83h-13v13.63h13A11.18,11.18,0,0,0,30.11,324.48Z" />
            <path class="cls-3"
                d="M58.36,327.12a11.22,11.22,0,0,1-4.45-4.24,12.41,12.41,0,0,1,0-12.19,11.22,11.22,0,0,1,4.45-4.24,13.24,13.24,0,0,1,6.39-1.53,13.39,13.39,0,0,1,6.45,1.53,11.26,11.26,0,0,1,4.44,4.24,12.34,12.34,0,0,1,0,12.19,11.26,11.26,0,0,1-4.44,4.24,13.39,13.39,0,0,1-6.45,1.53A13.24,13.24,0,0,1,58.36,327.12Zm11.72-1.62a9.47,9.47,0,0,0,3.73-3.59,10.32,10.32,0,0,0,0-10.24,9.5,9.5,0,0,0-3.73-3.6,11.58,11.58,0,0,0-10.66,0,9.45,9.45,0,0,0-3.71,3.6,10.52,10.52,0,0,0,0,10.24,9.42,9.42,0,0,0,3.71,3.59,11.58,11.58,0,0,0,10.66,0Z" />
            <path class="cls-3"
                d="M100.58,327.12a11.28,11.28,0,0,1-4.45-4.24,12.41,12.41,0,0,1,0-12.19,11.28,11.28,0,0,1,4.45-4.24,13.24,13.24,0,0,1,6.39-1.53,13.39,13.39,0,0,1,6.45,1.53,11.26,11.26,0,0,1,4.44,4.24,12.34,12.34,0,0,1,0,12.19,11.26,11.26,0,0,1-4.44,4.24,13.39,13.39,0,0,1-6.45,1.53A13.24,13.24,0,0,1,100.58,327.12Zm11.73-1.62a9.61,9.61,0,0,0,3.73-3.59,10.38,10.38,0,0,0,0-10.24,9.63,9.63,0,0,0-3.73-3.6,11.6,11.6,0,0,0-10.67,0,9.42,9.42,0,0,0-3.7,3.6,10.45,10.45,0,0,0,0,10.24,9.4,9.4,0,0,0,3.7,3.59,11.6,11.6,0,0,0,10.67,0Z" />
            <path class="cls-3"
                d="M156.65,328.24h-3L140.45,317.3v10.94h-2.07V295.79h2.07v20.07l11.9-10.52h2.82l-12.69,11.21Z" />
            <path class="cls-3"
                d="M175.86,327.5a11.6,11.6,0,0,1-4.44-3l1.28-1.3a10.89,10.89,0,0,0,4,2.6,14.59,14.59,0,0,0,5.33,1,11.25,11.25,0,0,0,5.78-1.28,3.82,3.82,0,0,0,2.17-3.4,3,3,0,0,0-.74-2.13,5.75,5.75,0,0,0-2.49-1.44,38.48,38.48,0,0,0-5.06-1.21,33,33,0,0,1-5.63-1.41,6.58,6.58,0,0,1-2.92-1.9,4.57,4.57,0,0,1-.88-2.9,5.12,5.12,0,0,1,2.66-4.54,13.52,13.52,0,0,1,7.21-1.67,16.6,16.6,0,0,1,5.16.74,14.07,14.07,0,0,1,4.22,2.27l-1.18,1.39a12.92,12.92,0,0,0-3.68-2,14.58,14.58,0,0,0-4.47-.62,12,12,0,0,0-5.8,1.16,3.56,3.56,0,0,0-2,3.24,2.9,2.9,0,0,0,.69,2,5.5,5.5,0,0,0,2.3,1.32,33.33,33.33,0,0,0,4.66,1.11,33.2,33.2,0,0,1,6,1.46,7,7,0,0,1,3.12,2,4.86,4.86,0,0,1,1,3.08,5.42,5.42,0,0,1-2.74,4.71,13.09,13.09,0,0,1-7.24,1.78A16.36,16.36,0,0,1,175.86,327.5Z" />
            <path class="cls-3"
                d="M225.19,327.4a11.68,11.68,0,0,1-5,1.25q-3.71,0-5.19-1.8a8.5,8.5,0,0,1-1.48-5.47V307.15H208.3v-1.81h5.24v-6.77l2.07-.19v7h8.45v1.81h-8.45v14.23a7.36,7.36,0,0,0,.94,4.12c.63.93,1.84,1.39,3.66,1.39a8.16,8.16,0,0,0,2-.32,13.79,13.79,0,0,0,2.17-.79Z" />
            <path class="cls-3"
                d="M247,327.12a11.22,11.22,0,0,1-4.45-4.24,12.41,12.41,0,0,1,0-12.19,11.22,11.22,0,0,1,4.45-4.24,14.21,14.21,0,0,1,12.83,0,11.22,11.22,0,0,1,4.45,4.24,12.41,12.41,0,0,1,0,12.19,11.22,11.22,0,0,1-4.45,4.24,14.21,14.21,0,0,1-12.83,0Zm11.72-1.62a9.54,9.54,0,0,0,3.73-3.59,10.32,10.32,0,0,0,0-10.24,9.57,9.57,0,0,0-3.73-3.6,11.58,11.58,0,0,0-10.66,0,9.45,9.45,0,0,0-3.71,3.6,10.52,10.52,0,0,0,0,10.24,9.42,9.42,0,0,0,3.71,3.59,11.58,11.58,0,0,0,10.66,0Z" />
            <path class="cls-3"
                d="M300.15,306.36l-.93,1.67a8.29,8.29,0,0,0-4.1-1,7.4,7.4,0,0,0-4.18,1.25,8.6,8.6,0,0,0-3,3.43,10.45,10.45,0,0,0-1.09,4.77v11.78H284.8v-22.9h2v5.1a10,10,0,0,1,3.48-3.92,8.94,8.94,0,0,1,4.92-1.41A9.4,9.4,0,0,1,300.15,306.36Z" />
            <path class="cls-3"
                d="M333.91,306.33a10.31,10.31,0,0,1,4.29,4,11.29,11.29,0,0,1,1.51,5.88c0,.59,0,1,0,1.35H317.29a9.87,9.87,0,0,0,3.11,6.81,10.25,10.25,0,0,0,7.16,2.51,13.49,13.49,0,0,0,5.19-1,9.33,9.33,0,0,0,3.8-2.69L338,324.3a11.91,11.91,0,0,1-4.49,3.22,15.05,15.05,0,0,1-6,1.18,13.13,13.13,0,0,1-6.37-1.53,11.15,11.15,0,0,1-4.4-4.24,12.75,12.75,0,0,1,0-12.26,11,11,0,0,1,4.35-4.22,12.93,12.93,0,0,1,6.34-1.53A14.14,14.14,0,0,1,333.91,306.33Zm-13.51,2.88a9.48,9.48,0,0,0-3.11,6.51h20.39a8.42,8.42,0,0,0-1.31-4.68,8.84,8.84,0,0,0-3.6-3.18,11.92,11.92,0,0,0-5.31-1.13A10.19,10.19,0,0,0,320.4,309.21Z" />
            <path class="cls-3"
                d="M53.66,231.17H66.28v56.41h-14v-35.3L34.6,272.59H31.85L14,252.2v35.38H0V231.17H12.62l20.52,24Z" />
            <path class="cls-3" d="M101.57,276.46h33.14v11.12H87.92V231.17h45.85v11h-32.2v11.44h30.48v10.64H101.57Z" />
            <path class="cls-3"
                d="M175.93,269h-8.16v18.61H153.69V231.17H183a25.81,25.81,0,0,1,11.42,2.38,17.55,17.55,0,0,1,7.55,6.73,18.7,18.7,0,0,1,2.66,10,17.44,17.44,0,0,1-3.56,11A19.28,19.28,0,0,1,191,267.84l17,19.74H191.21Zm12.32-24.42q-2.44-2.1-6.92-2.1H167.68v15.88h13.65q4.56,0,7-2.06a8.31,8.31,0,0,0,0-11.72Z" />
            <path class="cls-3"
                d="M270.89,287.58l-4.47-10.15H236.8l-4.46,10.15h-15l27-56.41h15l26.78,56.41Zm-19.15-43.76-9.87,22.25h19.57Z" />
            <path class="cls-3" d="M302.4,231.17h14.08v44.49H346.7v11.92H302.4Z" />
        </g>
    </g>
</svg>