<svg xmlns="http://www.w3.org/2000/svg" viewBox="0 0 378.9 469.12">
    <defs>
    
    </defs>
    <g id="Layer_2" data-name="Layer 2">
        <g id="TEXT">
            <path class="cls-1"
                d="M72.44,46.34c0-5.9-.08-11.47,0-17a43.55,43.55,0,0,1,.7-8.32A26.51,26.51,0,0,1,98.49.14c5-.13,9.91,0,14.51,2.21,10.47,4.94,15.78,13.31,16.07,24.81.16,6.29,0,12.58,0,19h59.4c0-6.59-.06-13,0-19.48.14-12.51,8.4-23.18,20.57-25.78,14.59-3.11,27.41,1.65,33.4,14.68,1.64,3.57,2.18,7.8,2.49,11.78.41,5.31.1,10.68.11,16v2.94h3c10.45,0,20.91.26,31.35-.07,11-.35,19.2,4.34,25.71,12.67,6.65,8.51,10.14,18.37,11.53,29a108.32,108.32,0,0,1,.83,13.83q.09,63.4,0,126.82v3.27c-3.92-1.43-7.43-2.89-11.05-4Q237.95,206.65,180.76,250a7.28,7.28,0,0,1-4.09,1.33q-60.78.1-121.56,0c-6.42,0-9.81,3.39-9.75,9.7,0,5.67,3.47,9,9.41,9q34.1,0,68.19,0H160.4c-19.63,24.83-29.49,52.68-29.86,84.17H54.93c-6.21,0-9.62,3.48-9.58,9.66,0,5.79,3.48,9.09,9.6,9.09q36.85,0,73.7,0h3.18c4.83,31.42,18.73,57.85,42.18,79.89-1.26.07-2,.15-2.71.15q-67.25,0-134.48,0c-10.57,0-18.42-4.91-24.62-13C5,430.82,1.58,420,.47,408.32c-.41-4.27-.45-8.59-.45-12.9Q0,247.79,0,100.15C0,88.18,2.09,76.68,7.78,66A43.07,43.07,0,0,1,17.94,53.13a27.35,27.35,0,0,1,18.4-6.82c11,.1,22,0,33,0Zm87.74,102.09h-95c-3.83,0-7.66,0-11.48,0a8.06,8.06,0,0,0-8,6c-2.06,8.29,3.08,12.71,9.24,12.7q105-.14,210.07-.06c.64,0,1.28,0,1.92,0a8.54,8.54,0,0,0,7.8-7.47c1-7.49-3.74-11.34-10-11.3C229.88,148.53,195,148.43,160.18,148.43Zm66.15-91.31c0-10,0-20.09,0-30.14a7.75,7.75,0,0,0-7.73-8c-1-.06-2.07,0-3.11,0-4.8.15-8.07,3.13-8.09,7.93q-.13,30.14,0,60.27a7.64,7.64,0,0,0,6.55,7.69,27,27,0,0,0,3.82.1c5.51,0,8.56-3.1,8.57-8.62Q226.35,71.7,226.33,57.12Zm-116.09,0V50.87c0-7.81,0-15.62,0-23.44,0-4.63-2.45-7.76-6.59-8.32a21.26,21.26,0,0,0-6.17.1,7.2,7.2,0,0,0-6.13,7.2q-.08,30.5,0,61a6.88,6.88,0,0,0,3.27,6c3.58,2.29,7.53,2.09,11.24.6,3.54-1.42,4.46-4.63,4.43-8.26C110.2,76.22,110.24,66.65,110.24,57.09Z" />
            <path class="cls-1"
                d="M264.11,239.58A114.77,114.77,0,1,1,264,469.12C200.6,469,149.19,417.54,149.32,354.3A114.83,114.83,0,0,1,264.11,239.58ZM228,398.43h-1.08a15.71,15.71,0,0,0-1.65-2.35q-17.89-18-35.85-35.85a9.38,9.38,0,1,0-13.34,13.2q22.26,22.38,44.63,44.66a9.24,9.24,0,0,0,7.37,2.77c3.12-.16,5.26-2,7.33-4q51.5-51.51,103-103A17.78,17.78,0,0,0,340,312.1a9.39,9.39,0,0,0-4.79-14.84c-4.07-1.18-7.25.34-10.11,3.21q-47.74,47.8-95.52,95.58A14.66,14.66,0,0,0,228,398.43Z" />
        </g>
    </g>
</svg>