<?xml version="1.0" encoding="utf-8"?>
<!-- Generator: Adobe Illustrator 23.0.1, SVG Export Plug-In . SVG Version: 6.00 Build 0)  -->
<svg version="1.1" id="Layer_1" xmlns="http://www.w3.org/2000/svg" xmlns:xlink="http://www.w3.org/1999/xlink" x="0px" y="0px"
	 viewBox="0 0 133.3 120.1" style="enable-background:new 0 0 133.3 120.1;" xml:space="preserve">
<style type="text/css">
	.st0{fill:#7E2061;}
</style>
<title>meral books</title>
<g>
	<g id="Calque_1">
		<path class="st0" d="M23.6,23.8c-0.6-0.9-1.2-1.9-1.6-2.9c-0.6-1.3-0.8-1.5-1.2-1.5s-0.8,0.3-1.7,1.4c-0.6,0.8-1.7,1.9-2.3,2.5
			c-1.3,1.7-2.4,3.6-3,5.7c-0.4,1.8-0.4,5,2,6.5c2.9,1.7,4.3,1,6.2-0.8c1.2-1.2,2.2-2.6,2.9-4.1c0.4-0.8,0.7-1.7,0.7-2.6
			C25.6,26.9,25.4,26.4,23.6,23.8z M20.9,25.2c-0.3-0.4-0.5-0.8-0.7-1.3c-0.3-0.6-0.3-0.6-0.5-0.6s-0.4,0.3-0.7,0.6s-0.8,0.8-1,1.1
			c-0.6,0.7-1,1.5-1.3,2.4c-0.1,0.8-0.1,2.2,0.9,2.8c0,0,0.1,0.1,0.1,0.1c0.8,0.6,2,0.4,2.6-0.4c0.5-0.5,0.9-1.1,1.3-1.8
			c0.2-0.3,0.3-0.7,0.3-1.1C21.8,26.6,21.7,26.4,20.9,25.2z"/>
		<path class="st0" d="M85.2,67.2L68,9.7L100.3,0l33,110.1l-32.3,9.7L88.2,77.1c1.6-1,3.2-2.7,5.8-6c3.1-3.9,4.9-5.8,6-6.4
			s2.6-0.4,5.2,0.6c3.1,1.2,4.3,1,6.3-0.8c1.2-1.2,2.2-2.5,2.9-4c0.4-0.8,0.7-1.7,0.7-2.6c0-1.1-0.3-1.6-2-4.3
			c-0.6-0.9-1.2-1.9-1.6-2.9c-0.6-1.3-0.7-1.5-1.2-1.5s-0.8,0.3-1.7,1.4c-0.6,0.8-1.6,2-2.3,2.6c-1,1-1.2,1.1-2,1.9
			c-2,1.7-3.9,3.7-5.5,5.8c-2.3,3.1-4,4.9-5.3,5.5c-1.6,0.8-2.4,0.9-6.2,0.7L85.2,67.2z"/>
		<path class="st0" d="M34.2,5.2v83.5c0.9-0.7,1.7-1.6,2.1-2.7c2.4-4.9,2.4-5.8,3.7-38.2c0.9-24.6,1.2-26.9,4.5-35.1
			c0.3-0.8,0.7-1.6,1.1-2.4c0.3,0,0.5,0,0.8,0.1c0.6,0.2,0.6-0.1,0.1,4.1c-0.4,3.4-0.8,10.8-1.2,22.4S44.7,55,44.6,59.1
			c0,5-0.5,9.9-1.5,14.8c-0.4,1.8-1.3,5.7-1.5,6.5l-0.4,1.4c-0.4,1.5-1.4,4.4-1.5,4.7c-0.1,0.2-0.2,0.3-0.2,0.5
			c-0.6,2.2-1.5,4.3-2.7,6.2c-0.8,1.3-1.7,2.5-2.6,3.7v23.3H68v-38c-2.3,2.4-5.1,6-9.1,12c-3.2,5-6.8,9.8-10.8,14.4
			c-3.3,3.9-9.4,9.8-10.1,9.8c-0.6-0.5-1.2-1-1.7-1.5c0-0.1,1-1.1,2.3-2.3c2-1.9,4.4-4.6,6.2-6.6c3.6-4.3,9.1-12.2,14.5-21
			c2.5-4.3,5.4-8.3,8.7-12.1c0,0,0,0,0-0.1V5.2H34.2z M60.8,29.8c-0.8,3.9-1.2,7.9-1.3,11.9c-0.1,2-0.3,5-0.4,6.8
			c-0.1,1.8-0.3,4.9-0.4,7c-0.6,10.3-0.8,12-2.5,18.4c-0.7,2.5-2.5,7.3-2.9,7.3c-0.1,0-0.4-0.1-0.8-0.2c-0.5-0.1-0.6-0.3-0.5-0.5
			c0.5-1.5,1-9.5,1.5-21.1c0.5-13.7,0.7-16.1,1.6-19.3c1-3.5,2.3-7,3.8-10.3l0.8-1.7l0.6,0.2c0.3,0.1,0.5,0.2,0.7,0.4
			C61,28.9,61,29.4,60.8,29.8z"/>
		<path class="st0" d="M73.6,102c-0.7-0.7-1.9-1.8-2.7-2.4c-0.6-0.5-1.1-1-1.6-1.6c-0.2-0.4,0.1-0.9,2.5-3.7c2-2.3,3.3-3.5,3.7-3.5
			s3.1,1.8,4.2,2.8l0.9,0.9l0.4-0.5c1.2-1.5,2.6-2.9,4-4.3c0.3-0.2,0.6-0.3,1-0.3c1.4,0.9,2.8,1.9,4,3c2.1,2.1,1.8,4-0.9,6.7
			c-1,1.1-2.3,2.1-3.6,2.8c-0.8-0.6-1.5-1.2-2.2-1.9c-0.7-0.7-1.5-1.4-2.3-1.9c-0.1,0-0.3,0.2-0.5,0.5c-0.8,1.3-4.6,4.5-5.3,4.5
			C74.6,102.9,74.1,102.5,73.6,102z"/>
		<path class="st0" d="M13.1,104.2c-4.5-0.9-8.5-3.7-10.8-7.8c-2.1-4-2.7-8.1-2.2-14c0.2-2.2,0.5-4.5,0.9-6.7
			c0.2-0.8,0.3-1.7,0.4-1.9c0.2-0.9,1.2-4.6,1.7-5.9c0.3-0.8,0.7-1.8,0.9-2.4s0.5-1.4,0.7-1.8l0.9-2c0.8-1.8,0.9-1.9,1.8-1.5
			c0.3,0.1,0.6,0.2,0.9,0.5c0,0.4-0.1,0.8-0.3,1.2c-0.9,2.4-1.7,4.8-2.4,7.3c-0.9,3.2-1.2,6.5-0.9,9.8C4.9,80.6,5.3,82.4,6,84
			c1.1,2.8,3.3,5,6,6.3c1.6,0.8,3.2,1.4,5,1.6c2.4,0.5,7.9,0.5,10.7-0.6c3.5-1.3,5.3-2,6.5-2.7v8.2c-1.7,2.2-3.8,4.1-6.2,5.6
			c-1.9,1-4,1.7-6.2,2C18.9,104.6,16,104.5,13.1,104.2z"/>
		<path class="st0" d="M88.2,77.1c-0.9,0.6-1.9,1-3,1.2c-1.7,0.4-3.4,0.4-5.2,0.1c-0.8-0.1-2.5-0.2-3.8-0.2c-3.4,0-4.8,0.5-7.3,2.8
			c-0.3,0.3-0.7,0.7-1,1.1v-7.5c2-2.4,4.5-4.5,7.3-6c2.7-1.4,3.8-1.6,9.9-1.4L88.2,77.1z"/>
	</g>
</g>
</svg>
