<?xml version="1.0" encoding="utf-8"?>
<!-- Generator: Adobe Illustrator 23.0.1, SVG Export Plug-In . SVG Version: 6.00 Build 0)  -->
<svg version="1.1" id="Layer_1" xmlns="http://www.w3.org/2000/svg" xmlns:xlink="http://www.w3.org/1999/xlink" x="0px" y="0px"
	 viewBox="0 0 192.7 151.9" style="enable-background:new 0 0 192.7 151.9;" xml:space="preserve">
<style type="text/css">
	.st0{fill:#7E2061;}
</style>
<g id="Group_36" transform="translate(1510.18 -550.681) rotate(45)">
	<path id="Path_18" class="st0" d="M-583.9,1541.3c-5.4-1.4-9.4-4.7-13.2-8.6c-7.1-7.4-14.5-14.5-21.7-21.8
		c-4.4-4.4-5.9-9.1-2.6-14.1c5-7.8,5-16.6,6.7-25.1c0.9-4.6,1.4-9.3,2.2-14c0.4-2.6,0.4-4.8-1.9-6.7c-4.5-3.7-8.7-7.5-13.2-11.4
		l87.6-88.5l50.3,51.3c-8.4,8.2-16.6,16.1-24.8,24.1c-2.4,2.4-4.9,4.7-7.2,7.3c-6.6,7.4-13,14.8-19.7,22.5c1.2,1.3,2.2,2.3,3.1,3.4
		c2.6,3.1,4.2,6.5,2.6,10.5c-0.9,2.3-0.3,3.8,1.5,5.3c4.2,3.7,5,8.3,3.1,13.6c-0.3,1.2,0,2.6,0.8,3.6c5.3,6.1,6.4,12.1,1.1,18
		c-9.1,10.3-17,22.3-31.3,26.4c-5.6,1.6-11.4,2.9-17,4.3H-583.9z M-605.7,1460.7c-0.7,4.4-1,8.5-1.9,12.4c-2,8.9-1.1,18.6-7.2,26.5
		c-1.4,1.9-1.1,4.1,0.8,6c8.3,8.2,16.3,16.7,24.9,24.7c2.6,2.3,5.9,3.7,9.4,3.7c19.5-1,33.1-12.3,44.1-27.2c3-4.1,2.4-6.2-1.8-9.9
		c-2.1,1.8-4.3,3.7-6.5,5.6c-1.9,1.7-3.9,3.1-6.1,0.7c-2.1-2.3-0.9-4.3,1-6.1c3.1-2.9,6.2-5.7,9-8.8c3.2-3.7,2.6-6.4-1.9-9.1
		c-2.5,2.3-5.1,4.5-7.6,6.8c-1.8,1.6-3.7,2.2-5.6,0.4c-2.1-2-1.3-4,0.6-5.8c2.9-2.7,5.9-5.3,8.5-8.2c4.1-4.4,3.9-6.3-0.9-10.7
		c-2.2,2.2-4.4,4.4-6.5,6.7c-1.9,2-4.2,3.3-6.5,1.1c-2.4-2.4-0.6-4.5,1.3-6.3c4.6-4.6,9.4-9.2,13.9-14c1.8-1.9,3.2-4.1,4.1-6.5
		c1.6-4.4-1.7-9.1-6.2-8.3c-3.3,0.6-6.3,2.2-8.7,4.5c-12.1,11.8-24,23.9-35.9,35.9c-1.9,1.9-3.9,4.2-6.6,1.5c-2.3-2.3-0.8-4.5,1-6.5
		c0.1-0.1,0.1-0.5,0-0.1L-605.7,1460.7z M-548.8,1374.9c-18.1,18.6-36.1,37-54,55.3c3.9,5.8,4,8.4,0.1,15.6l15,13.8l21.7-21.7
		c-8.9-5-12.4-12.3-9.5-20.6c2.6-7.4,9.6-11.6,17.7-10.6c8.7,1.1,12.8,7.3,13.5,19.8l8,4.6l22.2-20.6c-4.1-5.5-3.7-10.6,0-15.7
		l-20.2-19.3C-538.8,1378.7-543.6,1378.8-548.8,1374.9L-548.8,1374.9z"/>
	<path id="Path_19" class="st0" d="M-541.3,1324.7c8.6,8.6,17.3,17.1,25.8,25.8c9.5,9.8,18.9,19.7,28.3,29.6l-7.5,3.7
		c-9.7-9.5-19.3-18.9-28.9-28.4c-3.1-3-6.1-6.1-9.2-9.1c-5-4.9-9.7-4.7-14.7,0.2c-23.8,23.3-47.6,46.6-71.4,69.9
		c-0.7,0.7-1.5,1.4-2.6,2.4l-6.7-7.7c5.4-5.4,11.1-11.3,16.9-17.1c22.5-22.4,45.1-44.7,67.6-67.1c0.6-0.7,1.1-1.4,1.7-2.1
		L-541.3,1324.7z"/>
</g>
</svg>
