<svg xmlns="http://www.w3.org/2000/svg" width="151.062" height="177.472" viewBox="0 0 151.062 177.472">
  <g id="Group_38" data-name="Group 38" transform="translate(2024.401 -1111.514)">
    <path id="Path_23" data-name="Path 23" d="M-2022.915,1139.747c28.136.223,53.636-6.782,74.083-28.233,20.23,21.21,45.734,28.535,73.931,28.195,7.709,53.94-12.669,116.9-71.376,148.773a6.433,6.433,0,0,1-5.308-.147c-38.05-21.471-61.119-53.845-69.677-96.592A152.872,152.872,0,0,1-2022.915,1139.747Zm141.494,7.46c-25.431-.629-48.242-7.875-67.39-24.867-19.281,17.074-41.977,24.2-67.188,24.867a153.587,153.587,0,0,0,1.654,39.644c7.115,39.842,27.239,70.894,61.941,92.22,2.607,1.6,4.517,1.7,7.167.059,12.273-7.6,23.38-16.544,32.613-27.666C-1887.581,1221.3-1879.072,1186.178-1881.421,1147.207Z" fill="#7e2061"/>
    <path id="Path_24" data-name="Path 24" d="M-1889.136,1154.057a130.1,130.1,0,0,1-4.183,44.627q-11.9,45.389-51.34,71.008c-3.157,2.042-5.354,1.879-8.4-.112-31.493-20.55-49.118-49.78-54.209-86.717-1.286-9.327-1.408-18.816-2.1-28.728,23.2-1.132,43.306-7.87,60.571-22.111C-1931.437,1146.208-1911.493,1153.008-1889.136,1154.057Z" fill="#7e2061"/>
  </g>
</svg>
